HIERARCHY
ROOT Hips
{
 OFFSET 0.000000 0.000000 0.000000
 CHANNELS 6 Xposition Yposition Zposition Yrotation Xrotation Zrotation
 JOINT Chest
 {
  OFFSET 0.000000 9.585900 0.002600
  CHANNELS 3 Yrotation Xrotation Zrotation
  JOINT Chest2
  {
   OFFSET 0.000000 9.601200 -0.005300
   CHANNELS 3 Yrotation Xrotation Zrotation
   JOINT Chest3
   {
    OFFSET 0.000000 9.561800 0.000000
    CHANNELS 3 Yrotation Xrotation Zrotation
    JOINT Chest4
    {
     OFFSET 0.000000 9.552100 0.000000
     CHANNELS 3 Yrotation Xrotation Zrotation
     JOINT Neck
     {
      OFFSET 0.000000 14.453000 0.000000
      CHANNELS 3 Yrotation Xrotation Zrotation
      JOINT Head
      {
       OFFSET 0.000000 8.936500 -0.011300
       CHANNELS 3 Yrotation Xrotation Zrotation
       End Site
       {
        OFFSET 0.000000 17.073600 -0.006000
       }
      }
     }
     JOINT RightCollar
     {
      OFFSET -2.921100 9.558500 0.000000
      CHANNELS 3 Yrotation Xrotation Zrotation
      JOINT RightShoulder
      {
       OFFSET -13.519700 0.000000 0.000000
       CHANNELS 3 Yrotation Xrotation Zrotation
       JOINT RightElbow
       {
        OFFSET 0.000000 -29.696600 0.000000
        CHANNELS 3 Yrotation Xrotation Zrotation
        JOINT RightWrist
        {
         OFFSET 0.000000 -24.004700 0.000000
         CHANNELS 3 Yrotation Xrotation Zrotation
         End Site
         {
          OFFSET 0.000000 -17.728500 0.000000
         }
        }
       }
      }
     }
     JOINT LeftCollar
     {
      OFFSET 2.921100 9.558500 0.000000
      CHANNELS 3 Yrotation Xrotation Zrotation
      JOINT LeftShoulder
      {
       OFFSET 13.519700 0.000000 0.000000
       CHANNELS 3 Yrotation Xrotation Zrotation
       JOINT LeftElbow
       {
        OFFSET 0.000000 -29.696600 0.000000
        CHANNELS 3 Yrotation Xrotation Zrotation
        JOINT LeftWrist
        {
         OFFSET 0.000000 -24.004700 0.000000
         CHANNELS 3 Yrotation Xrotation Zrotation
         End Site
         {
          OFFSET 0.000000 -17.728500 0.000000
         }
        }
       }
      }
     }
    }
   }
  }
 }
 JOINT RightHip
 {
  OFFSET -7.771700 -0.012900 -0.001300
  CHANNELS 3 Yrotation Xrotation Zrotation
  JOINT RightKnee
  {
   OFFSET 0.000000 -40.869800 0.001200
   CHANNELS 3 Yrotation Xrotation Zrotation
   JOINT RightAnkle
   {
    OFFSET 0.000000 -39.717900 0.002100
    CHANNELS 3 Yrotation Xrotation Zrotation
    JOINT RightToe
    {
     OFFSET 0.000000 -4.965400 11.033500
     CHANNELS 3 Yrotation Xrotation Zrotation
     End Site
     {
      OFFSET 0.000000 -1.423100 5.872300
     }
    }
   }
  }
 }
 JOINT LeftHip
 {
  OFFSET 7.771700 -0.012900 -0.001300
  CHANNELS 3 Yrotation Xrotation Zrotation
  JOINT LeftKnee
  {
   OFFSET 0.000000 -40.869800 0.001200
   CHANNELS 3 Yrotation Xrotation Zrotation
   JOINT LeftAnkle
   {
    OFFSET 0.000000 -39.717900 0.002100
    CHANNELS 3 Yrotation Xrotation Zrotation
    JOINT LeftToe
    {
     OFFSET 0.000000 -4.965400 11.033500
     CHANNELS 3 Yrotation Xrotation Zrotation
     End Site
     {
      OFFSET 0.000000 -1.423100 5.872300
     }
    }
   }
  }
 }
}
MOTION
Frames: 15
Frame Time: 0.008333
-23.959514 57.936179 13.402926 177.449077 -50.273800 -2.756804 3.942857 21.238874 4.191189 2.007124 12.183368 2.179777 2.605030 15.237562 2.823234 2.009420 12.187877 2.184107 3.526719 20.365556 3.018589 5.414992 1.977691 4.471805 0.264866 2.960968 0.687901 -3.459140 -17.772297 -5.896368 -27.991715 -41.755995 70.780923 9.191489 -2.690926 -20.720018 -10.331077 -0.630856 3.072679 -2.664792 -43.200916 25.947466 12.597130 -41.990214 -6.692659 -4.506217 3.479044 12.735065 2.108830 -21.509712 -3.633710 -32.937242 73.166333 -37.527547 6.350385 -12.543648 11.465824 0.032387 0.108101 0.023767 -3.520386 -18.897802 6.633675 86.845651 84.306320 86.147421 -0.311779 -22.366312 -15.681972 -0.039345 -0.004325 -0.010739
-23.956510 57.935366 13.391315 177.456297 -50.285743 -2.753187 3.934441 21.238632 4.179051 2.007048 12.188119 2.179228 2.599352 15.223461 2.813949 1.997583 12.159444 2.161026 3.472624 20.378633 3.032774 5.390347 1.992774 4.487543 0.299164 2.974346 0.704232 -3.445814 -17.789706 -5.903088 -27.906851 -41.748046 70.681701 9.183686 -2.666382 -20.737979 -10.305745 -0.577957 3.077319 -2.513921 -43.138826 25.761041 12.666675 -42.126881 -6.845072 -4.474106 3.514116 12.801934 2.092979 -21.501938 -3.638114 -33.013071 73.182950 -37.616059 6.367192 -12.580939 11.464880 0.043302 0.085719 0.023146 -3.498142 -18.884681 6.625587 86.933551 84.319464 86.250362 -0.309792 -22.382991 -15.677207 -0.038809 -0.000612 -0.011186
-23.953994 57.933703 13.380864 177.457896 -50.296189 -2.744983 3.929346 21.242918 4.167851 2.007576 12.186592 2.177077 2.595592 15.211292 2.803063 1.995199 12.157967 2.158409 3.431704 20.364223 3.033423 5.346490 1.983198 4.504244 0.319408 2.964318 0.708669 -3.421926 -17.808080 -5.916535 -27.860501 -41.728462 70.616983 9.179823 -2.647569 -20.748395 -10.285427 -0.556800 3.056643 -2.387797 -43.065476 25.598555 12.749049 -42.272347 -7.014238 -4.443948 3.552527 12.861956 2.086099 -21.494226 -3.643175 -33.085170 73.196970 -37.698795 6.381439 -12.630532 11.460755 0.040077 0.079204 0.026296 -3.477620 -18.873751 6.617478 86.986632 84.326365 86.317574 -0.317726 -22.392045 -15.674706 -0.034858 -0.002125 -0.010276
-23.953673 57.931514 13.371407 177.460507 -50.306991 -2.727304 3.918208 21.248278 4.144743 2.004036 12.176485 2.170870 2.591900 15.196549 2.787671 2.002646 12.173258 2.164231 3.412342 20.355707 3.040281 5.286905 1.943631 4.518760 0.334969 2.960198 0.708672 -3.401658 -17.835527 -5.922087 -27.832554 -41.703483 70.569207 9.175621 -2.633723 -20.753256 -10.264932 -0.519862 3.001928 -2.308567 -42.997180 25.493847 12.848096 -42.434317 -7.198381 -4.413530 3.596034 12.911915 2.089607 -21.483227 -3.660395 -33.176981 73.209776 -37.793786 6.366076 -12.700510 11.455145 0.035650 0.096831 0.033948 -3.459575 -18.863229 6.598527 87.025046 84.331069 86.362927 -0.322578 -22.396544 -15.675431 -0.030697 -0.002407 -0.006095
-23.952655 57.928731 13.363543 177.466034 -50.315832 -2.719297 3.911865 21.245179 4.130429 2.002990 12.175536 2.166487 2.592423 15.206204 2.792421 2.002500 12.167577 2.152821 3.408967 20.356103 3.052812 5.216191 1.874937 4.530279 0.346702 2.956147 0.705848 -3.361314 -17.898923 -5.940908 -27.823594 -41.643658 70.520129 9.155401 -2.640001 -20.758362 -10.259485 -0.483616 2.979439 -2.205687 -42.918408 25.356978 12.966590 -42.616808 -7.395746 -4.389411 3.644270 12.950872 2.081739 -21.478529 -3.663924 -33.250145 73.219634 -37.880486 6.368087 -12.743530 11.454809 0.028288 0.092800 0.035030 -3.451934 -18.854333 6.587031 87.063666 84.334839 86.403235 -0.323283 -22.403199 -15.673435 -0.033207 0.001880 -0.006067
-23.951115 57.925066 13.357671 177.467146 -50.319574 -2.714643 3.911993 21.239604 4.123993 2.002373 12.175021 2.163600 2.591615 15.205660 2.788769 2.006136 12.174154 2.152644 3.377377 20.325737 3.053532 5.175251 1.822265 4.542072 0.354937 2.950616 0.703263 -3.364159 -17.904517 -5.935777 -27.796543 -41.644640 70.497612 9.162472 -2.625263 -20.763558 -10.260073 -0.445481 2.952132 -2.120339 -42.828764 25.234078 13.108430 -42.816544 -7.607603 -4.379258 3.694050 12.983857 2.076200 -21.486179 -3.647821 -33.354320 73.227222 -38.003852 6.358470 -12.774758 11.455617 0.036598 0.082635 0.041457 -3.449019 -18.851354 6.582073 87.151691 84.332972 86.490457 -0.323642 -22.412603 -15.673347 -0.036312 0.006675 -0.007166
-23.950391 57.921709 13.352792 177.474526 -50.326237 -2.713611 3.927663 21.239358 4.127891 1.991001 12.176215 2.160015 2.590499 15.207007 2.784267 2.001505 12.176059 2.159928 3.335010 20.273976 3.038122 5.150066 1.779614 4.559975 0.364927 2.946433 0.695801 -3.367132 -17.911109 -5.932264 -27.780209 -41.640940 70.480381 9.186812 -2.603532 -20.743517 -10.261589 -0.405924 2.917619 -2.048700 -42.726084 25.120301 13.266591 -43.031899 -7.829193 -4.378449 3.744409 13.013034 2.073100 -21.486578 -3.640569 -33.434624 73.233545 -38.098957 6.355368 -12.803923 11.461271 0.040120 0.051763 0.039432 -3.450404 -18.843534 6.574491 87.204956 84.329349 86.546083 -0.329418 -22.423272 -15.677226 -0.027926 0.012238 -0.006482
-23.949867 57.918430 13.349254 177.480422 -50.332932 -2.714351 3.935916 21.247428 4.129022 2.000480 12.180393 2.155247 2.578444 15.202998 2.785409 2.001023 12.177961 2.157271 3.312040 20.232745 3.039741 5.117095 1.714229 4.572654 0.369236 2.937908 0.700028 -3.361331 -17.922450 -5.945933 -27.793483 -41.620765 70.487232 9.197214 -2.592675 -20.723783 -10.263672 -0.367342 2.895305 -1.984212 -42.612986 25.007626 13.420767 -43.262736 -8.048899 -4.378685 3.793180 13.038284 2.070396 -21.484441 -3.636629 -33.481420 73.237238 -38.154233 6.355714 -12.822042 11.466423 0.038426 0.055966 0.039486 -3.455227 -18.834246 6.570321 87.209768 84.325588 86.548126 -0.329657 -22.431719 -15.679913 -0.032151 0.021868 -0.006687
-23.949882 57.914784 13.347426 177.481327 -50.335445 -2.712564 3.947133 21.252094 4.131421 2.001439 12.183446 2.153379 2.578042 15.205797 2.782121 2.010740 12.194718 2.144369 3.291597 20.178607 3.056633 5.081882 1.639359 4.584013 0.359129 2.912155 0.715995 -3.354942 -17.936372 -5.975025 -27.801999 -41.596479 70.507334 9.194654 -2.598258 -20.708074 -10.276658 -0.342528 2.892267 -1.920006 -42.495334 24.892390 13.555784 -43.507659 -8.261073 -4.377798 3.836376 13.063771 2.069586 -21.488877 -3.618797 -33.568057 73.235372 -38.254447 6.347805 -12.852156 11.463685 0.047890 0.053020 0.047635 -3.466581 -18.827325 6.570079 87.199176 84.321064 86.522817 -0.327128 -22.440829 -15.679367 -0.026867 0.034217 -0.008108
-23.953780 57.911752 13.346132 177.495821 -50.340881 -2.702529 3.941856 21.262483 4.114341 1.996940 12.182777 2.151754 2.583224 15.212146 2.777835 2.008702 12.191674 2.147691 3.279419 20.147873 3.054383 5.049317 1.566117 4.595786 0.355081 2.906890 0.710191 -3.361523 -17.939772 -5.974706 -27.783294 -41.590546 70.515902 9.189829 -2.614004 -20.703649 -10.280202 -0.323561 2.883739 -1.830912 -42.347992 24.751236 13.665329 -43.766048 -8.470664 -4.373139 3.873713 13.096576 2.068770 -21.487502 -3.621898 -33.668538 73.232048 -38.373719 6.328759 -12.883127 11.471920 0.047327 0.049777 0.052168 -3.477839 -18.821618 6.546999 87.155624 84.317281 86.467404 -0.330615 -22.440544 -15.676487 -0.025178 0.039986 -0.007936
-23.958658 57.908732 13.346104 177.500263 -50.344286 -2.683674 3.942160 21.272054 4.096025 1.993684 12.181276 2.150124 2.608291 15.232399 2.770053 1.990492 12.173473 2.159485 3.270029 20.117736 3.052283 5.019233 1.494591 4.606810 0.352714 2.925600 0.691784 -3.376886 -17.962981 -5.955271 -27.767238 -41.584029 70.522246 9.190953 -2.634468 -20.698126 -10.283637 -0.302202 2.876309 -1.729456 -42.196178 24.605961 13.746169 -44.037863 -8.680083 -4.364730 3.907682 13.138242 2.074543 -21.484594 -3.636009 -33.655654 73.238483 -38.397186 6.324086 -12.908346 11.500625 0.024513 0.041829 0.044655 -3.485237 -18.819114 6.522233 87.149148 84.313526 86.449186 -0.333798 -22.441903 -15.676616 -0.021855 0.043760 -0.006296
-23.961407 57.905465 13.347773 177.503084 -50.342533 -2.681018 3.947447 21.274714 4.094454 1.997112 12.184701 2.150090 2.616338 15.236621 2.766321 2.005507 12.187198 2.152467 3.247808 20.066812 3.064190 4.991112 1.423208 4.617818 0.329236 2.910469 0.705139 -3.384226 -17.968252 -5.949294 -27.749295 -41.587579 70.525225 9.187181 -2.654209 -20.702665 -10.308810 -0.207151 2.852230 -1.650949 -42.125376 24.510125 13.802999 -44.320567 -8.883502 -4.358773 3.938695 13.184823 2.070451 -21.489627 -3.621158 -33.686307 73.231602 -38.454356 6.324264 -12.921952 11.507170 0.037917 0.013351 0.040074 -3.497588 -18.822296 6.514587 87.099202 84.308386 86.390251 -0.331574 -22.437352 -15.679810 -0.021513 0.048133 -0.005159
-23.964302 57.902822 13.350017 177.508594 -50.342934 -2.683472 3.946622 21.276800 4.093776 2.010607 12.191716 2.149084 2.611753 15.233810 2.767338 2.002670 12.183703 2.155353 3.245365 20.043023 3.055893 4.966092 1.350864 4.628747 0.325965 2.911067 0.705776 -3.386047 -17.967476 -5.947058 -27.749198 -41.590483 70.528493 9.189070 -2.660550 -20.698082 -10.314701 -0.118847 2.816351 -1.562093 -42.017406 24.398807 13.846743 -44.611529 -9.076942 -4.361188 3.968708 13.234229 2.064214 -21.489102 -3.605064 -33.722869 73.218526 -38.510374 6.324551 -12.936743 11.511054 0.038891 0.020105 0.046403 -3.508377 -18.823774 6.509559 87.098443 84.306012 86.380904 -0.326315 -22.436910 -15.678722 -0.022261 0.051572 -0.006342
-23.966059 57.899962 13.353497 177.514351 -50.338813 -2.696182 3.961486 21.281620 4.106982 2.014456 12.193329 2.147476 2.606512 15.228321 2.769183 2.014509 12.193274 2.147430 3.236278 20.005773 3.062770 4.943282 1.277723 4.638825 0.306730 2.914406 0.713060 -3.387944 -17.982729 -5.933739 -27.748906 -41.594438 70.531886 9.210438 -2.677762 -20.668277 -10.337237 -0.057479 2.809558 -1.470437 -41.881022 24.275229 13.881715 -44.913880 -9.258943 -4.367325 4.004354 13.284953 2.060845 -21.494595 -3.571569 -33.798636 73.202404 -38.593980 6.309097 -12.955816 11.498890 0.057928 0.034010 0.066399 -3.517699 -18.829171 6.516694 87.102737 84.304660 86.381856 -0.324805 -22.441582 -15.678295 -0.021550 0.057548 -0.006348
-23.970564 57.897785 13.356853 177.524551 -50.338173 -2.697732 3.966656 21.290250 4.103868 2.027439 12.200848 2.145247 2.605720 15.226753 2.773241 2.019214 12.196061 2.147427 3.221867 19.974623 3.070726 4.923916 1.197720 4.639844 0.282105 2.915590 0.712313 -3.371515 -17.972330 -5.910753 -27.762547 -41.631668 70.539749 9.214714 -2.687590 -20.661447 -10.363819 0.000105 2.804410 -1.385634 -41.727377 24.147934 13.912973 -45.229567 -9.430330 -4.372620 4.050031 13.336415 2.059524 -21.496171 -3.570745 -33.824111 73.196526 -38.632894 6.307781 -12.961747 11.513446 0.042225 0.006913 0.047332 -3.534522 -18.832468 6.508229 87.087767 84.307763 86.355896 -0.319892 -22.438589 -15.677016 -0.019457 0.058981 -0.006910
